{"title":"Il.Casanova.di.Federico.Fellini.1976.720p.AC3.2Audio.x264-CHD","uid":7147810,"size":8506850009,"categoryP":"video","categoryS":"hd___movies","magnet":"?xt=urn:btih:13a1ca738553b418f62ab6a14bed7049315eb75c&amp;dn=Il.Casanova.di.Federico.Fellini.1976.720p.AC3.2Audio.x264-CHD&amp;tr=udp%3A%2F%2Ftracker.openbittorrent.com%3A80&amp;tr=udp%3A%2F%2Fopen.demonii.com%3A1337&amp;tr=udp%3A%2F%2Ftracker.coppersurfer.tk%3A6969&amp;tr=udp%3A%2F%2Fexodus.desync.com%3A6969","seeders":0,"leechers":1,"uploader":"rpessoa","files":4,"time":1333153174,"description":"Fellini's Casanova (1976)\n &lt;a href=&quot;\nhttp://www.imdb.com/title/tt0074291/&quot; rel=&quot;nofollow&quot; target=&quot;_NEW&quot;&gt;\nhttp://www.imdb.com/title/tt0074291/&lt;/a&gt;\n\nCasanova is a libertine, collecting seductions and sexual feats. But he is really interested in someone, and is he really an interesting person. Is he really alive? \n\n\nFormat                                   : Matroska\nFormat version                           : Version 2\nFile size                                : 7.92 GiB\nDuration                                 : 2h 34mn\nOverall bit rate                         : 7 364 Kbps\nVideo\nID                                       : 1\nFormat                                   : AVC\nFormat profile                           : &lt;a class=&quot;__cf_email__&quot; href=&quot;/cdn-cgi/l/email-protection&quot; data-cfemail=&quot;b5fddcd2ddf5f9819b84&quot;&gt;[email&amp;#160;protected]&lt;/a&gt;&lt;script cf-hash='f9e31' type=&quot;text/javascript&quot;&gt;\n/* &lt;![CDATA[ */!function(){try{var t=&quot;currentScript&quot;in document?document.currentScript:function(){for(var t=document.getElementsByTagName(&quot;script&quot;),e=t.length;e--;)if(t[e].getAttribute(&quot;cf-hash&quot;))return t[e]}();if(t&amp;&amp;t.previousSibling){var e,r,n,i,c=t.previousSibling,a=c.getAttribute(&quot;data-cfemail&quot;);if(a){for(e=&quot;&quot;,r=parseInt(a.substr(0,2),16),n=2;a.length-n;n+=2)i=parseInt(a.substr(n,2),16)^r,e+=String.fromCharCode(i);e=document.createTextNode(e),c.parentNode.replaceChild(e,c)}}}catch(u){}}();/* ]]&gt; */&lt;/script&gt;\nCodec ID                                 : V_MPEG4/ISO/AVC\nDuration                                 : 2h 34mn\nBit rate                                 : 6 466 Kbps\nWidth                                    : 1 280 pixels\nHeight                                   : 694 pixels\nDisplay aspect ratio                     : 16:9\nFrame rate                               : 24.000 fps\nColor space                              : YUV\nAudio #1\nID                                       : 2\nFormat                                   : AC-3\nFormat/Info                              : Audio Coding 3\nMode extension                           : CM (complete main)\nCodec ID                                 : A_AC3\nDuration                                 : 2h 34mn\nBit rate mode                            : Constant\nBit rate                                 : 448 Kbps\nChannel(s)                               : 1 channel\nSampling rate                            : 48.0 KHz\nBit depth                                : 16 bits\nCompression mode                         : Lossy\nStream size                              : 494 MiB (6%)\nLanguage                                 : Italian\nDefault                                  : Yes\nForced                                   : No\nAudio #2\nID                                       : 3\nFormat                                   : AC-3\nFormat/Info                              : Audio Coding 3\nMode extension                           : CM (complete main)\nCodec ID                                 : A_AC3\nDuration                                 : 2h 34mn\nBit rate mode                            : Constant\nBit rate                                 : 448 Kbps\nChannel(s)                               : 1 channel\nSampling rate                            : 48.0 KHz\nBit depth                                : 16 bits\nCompression mode                         : Lossy\nStream size                              : 494 MiB (6%)\nLanguage                                 : English\nDefault                                  : No\nForced                                   : No","torrent":{"xt":"urn:btih:13a1ca738553b418f62ab6a14bed7049315eb75c","amp;dn":"Il.Casanova.di.Federico.Fellini.1976.720p.AC3.2Audio.x264-CHD","amp;tr":["udp%3A%2F%2Ftracker.openbittorrent.com%3A80","udp%3A%2F%2Fopen.demonii.com%3A1337","udp%3A%2F%2Ftracker.coppersurfer.tk%3A6969","udp%3A%2F%2Fexodus.desync.com%3A6969"],"infoHash":"13a1ca738553b418f62ab6a14bed7049315eb75c","infoHashBuffer":{"type":"Buffer","data":[19,161,202,115,133,83,180,24,246,42,182,161,75,237,112,73,49,94,183,92]},"announce":[],"urlList":[]}}